<svg xmlns="http://www.w3.org/2000/svg" fill="none" viewBox="0 0 208 40">
  <clipPath id="a">
    <path d="M0 0h207.587v40H0z"/>
  </clipPath>
  <g clip-path="url(#a)">
    <path fill="#960023" d="M207.587 0H0v40h207.587z"/>
    <g fill="#fff">
      <path d="M13.627 31.807V12.424H6.614V6.8h20.432v5.624h-6.972v19.383z"/>
      <path d="M33.833 13.252c5.362 0 9.26 3.938 9.26 10.087v1.239h-12.9c.34 1.686 1.913 3.223 4.612 3.223 1.614 0 3.413-.637 4.426-1.537l2.437 3.6c-1.8 1.613-4.797 2.4-7.573 2.4-5.588 0-9.897-3.635-9.897-9.522 0-5.25 3.974-9.486 9.635-9.486zm-3.712 7.573h7.46c-.15-1.275-1.085-3.11-3.748-3.11-2.514 0-3.486 1.799-3.712 3.11zm26.657 10.982v-1.8c-1.125 1.353-3.3 2.252-5.624 2.252-2.776 0-6.226-1.876-6.226-5.959 0-4.385 3.45-5.697 6.226-5.697 2.4 0 4.535.751 5.624 2.098v-2.287c0-1.574-1.351-2.627-3.675-2.627-1.8 0-3.676.673-5.137 1.912l-2.061-3.635c2.324-1.99 5.434-2.812 8.21-2.812 4.35 0 8.437 1.614 8.437 7.234v11.321zm0-6.262c-.6-.823-1.948-1.275-3.223-1.275-1.537 0-2.89.674-2.89 2.098s1.352 2.098 2.89 2.098c1.275 0 2.622-.452 3.223-1.311V25.54zm32.658 6.262V20.784c0-1.388-.674-2.437-2.401-2.437-1.574 0-2.7 1.013-3.26 1.763v11.697h-5.774V20.784c0-1.388-.637-2.437-2.4-2.437-1.538 0-2.623 1.013-3.224 1.763v11.697h-5.774V13.7h5.774v2.211c.787-1.049 3.11-2.663 5.959-2.663 2.586 0 4.386 1.09 5.136 3.224 1.05-1.573 3.414-3.224 6.262-3.224 3.337 0 5.435 1.723 5.435 5.435v13.12H89.43zm10.046 0V6.8h12.524c5.625 0 8.699 3.789 8.699 8.323 0 4.535-3.074 8.211-8.699 8.211h-6.072v8.473h-6.447zm11.661-19.573h-5.213v5.625h5.213c1.722 0 2.997-1.085 2.997-2.776 0-1.691-1.275-2.849-2.997-2.849zm11.321 19.573V6.8h5.774v25.007zm20.282 0v-1.8c-1.125 1.353-3.3 2.252-5.624 2.252-2.776 0-6.226-1.876-6.226-5.959 0-4.385 3.45-5.697 6.226-5.697 2.401 0 4.535.751 5.624 2.098v-2.287c0-1.574-1.351-2.627-3.675-2.627-1.8 0-3.676.673-5.137 1.912l-2.061-3.635c2.324-1.99 5.434-2.812 8.21-2.812 4.35 0 8.437 1.614 8.437 7.234v11.321zm0-6.262c-.601-.823-1.948-1.275-3.223-1.275-1.537 0-2.889.674-2.889 2.098s1.352 2.098 2.889 2.098c1.275 0 2.622-.452 3.223-1.311V25.54zm9.075 8.175c.411.226.976.339 1.424.339 1.311 0 2.139-.262 2.437-1.013l.411-.977-7.197-18.37h6.072l4.087 11.475 4.123-11.475h6.113l-8.174 20.694c-1.461 3.825-4.201 4.689-7.65 4.761-.525 0-1.877-.113-2.474-.298l.823-5.136zm26.282-20.468c5.362 0 9.26 3.938 9.26 10.087v1.239h-12.899c.339 1.686 1.912 3.223 4.611 3.223 1.614 0 3.414-.637 4.427-1.537l2.437 3.6c-1.8 1.613-4.798 2.4-7.574 2.4-5.588 0-9.897-3.635-9.897-9.522 0-5.25 3.975-9.486 9.635-9.486zm-3.712 7.573h7.46c-.149-1.275-1.085-3.11-3.748-3.11-2.514 0-3.486 1.799-3.712 3.11zm15.368 10.982V13.7h5.774v2.288c1.198-1.46 3.486-2.735 5.66-2.735v5.588c-.339-.113-.822-.185-1.424-.185-1.501 0-3.486.637-4.236 1.686v11.47h-5.774z"/>
    </g>
  </g>
</svg>